<svg width="60" height="60" viewBox="0 0 60 60" fill="none" xmlns="http://www.w3.org/2000/svg">
<path d="M30 0C46.5685 0 60 13.4315 60 30C60 46.1968 47.1644 59.3924 31.1104 59.9766L36 37H44.5L46 30.1094L37.5 30C37.5 27.941 38.0321 26.3832 38.7148 25.2549C39.8221 23.4252 42.1123 23 44.251 23H46.5L49 16H37.0039C36.0071 16 34.9989 16.1169 34.0996 16.5469C28.6578 19.1486 26.6164 26.0693 26 30.1094H19L17 37H24.5L19.2461 58.0127C7.99006 53.6888 0 42.7784 0 30C0 13.4315 13.4315 0 30 0Z" fill="#546DF6"/>
</svg>
